<svg width="137" height="72" viewBox="0 0 137 72" fill="none" xmlns="http://www.w3.org/2000/svg">
<path fill-rule="evenodd" clip-rule="evenodd" d="M56.4014 7.24219H15.2432C10.6281 7.24219 6.88709 10.9834 6.88709 15.5985C6.88709 20.2137 10.6281 23.9547 15.2432 23.9547H36.2279L2.44786 57.7351C-0.815954 60.9978 -0.815954 66.2888 2.44786 69.5524C5.71096 72.8157 11.0019 72.8157 14.265 69.5524L48.0451 35.7724V56.7565C48.0451 61.3716 51.7863 65.1128 56.4014 65.1128C61.0165 65.1128 64.7576 61.3716 64.7576 56.7565V15.5985C64.7576 10.9834 61.0165 7.24219 56.4014 7.24219Z" fill="black"/>
<path fill-rule="evenodd" clip-rule="evenodd" d="M80.4547 64.7576H121.613C126.228 64.7576 129.969 61.0165 129.969 56.4014C129.969 51.7863 126.228 48.0451 121.613 48.0451H100.628L134.408 14.265C137.672 11.0019 137.672 5.71096 134.408 2.44786C131.145 -0.815954 125.854 -0.815954 122.591 2.44786L88.8109 36.2279V15.2432C88.8109 10.6281 85.0699 6.88709 80.4547 6.88709C75.8396 6.88709 72.0984 10.6281 72.0984 15.2432V56.4014C72.0984 61.0165 75.8396 64.7576 80.4547 64.7576Z" fill="#FF7900"/>
</svg>
